<svg xmlns="http://www.w3.org/2000/svg" version="1.1" xmlns:xlink="http://www.w3.org/1999/xlink" xmlns:svgjs="http://svgjs.com/svgjs" width="1440" height="560" preserveAspectRatio="none" viewBox="0 0 1440 560"><g mask="url(&quot;#SvgjsMask1123&quot;)" fill="none"><rect width="1440" height="560" x="0" y="0" fill="url(#SvgjsLinearGradient1124)"></rect><path d="M495.47 2.86L541.15 2.86L541.15 48.54L495.47 48.54z" stroke="#e73635"></path><path d="M1408.6 526L1428.62 526L1428.62 546.02L1408.6 546.02z" fill="#e73635"></path><path d="M379.45 343.49 a33.06 33.06 0 1 0 66.12 0 a33.06 33.06 0 1 0 -66.12 0z" fill="#e73635"></path><path d="M859.79 173.37a46.31 46.31 0 1 0-89.35-24.37z" stroke="#d3b714"></path><path d="M1383.24 104.23 a51.32 51.32 0 1 0 102.64 0 a51.32 51.32 0 1 0 -102.64 0z" fill="#037b0b"></path><path d="M823.47 21.54L870.69 21.54L870.69 68.76L823.47 68.76z" stroke="#d3b714"></path><path d="M514.16 396.23a38.28 38.28 0 1 0 2.2 76.52z" fill="#037b0b"></path><path d="M519.88 456.91a29.04 29.04 0 1 0-43.73-38.21z" fill="#d3b714"></path><path d="M658.71 69.01L667.23 69.01L667.23 77.53L658.71 77.53z" stroke="#d3b714"></path><path d="M235.82 435.71L262.44 435.71L262.44 462.33L235.82 462.33z" stroke="#037b0b"></path><path d="M62.06 165.7 a20.34 20.34 0 1 0 40.68 0 a20.34 20.34 0 1 0 -40.68 0z" stroke="#d3b714"></path><path d="M872.37 231.1 a11.06 11.06 0 1 0 22.12 0 a11.06 11.06 0 1 0 -22.12 0z" fill="#d3b714"></path><path d="M535.4 293.08a27.3 27.3 0 1 0-50.65 20.41z" fill="#d3b714"></path><path d="M781.93 432.18a4.15 4.15 0 1 0-8.24-0.97z" stroke="#e73635"></path><path d="M899.65 438.71 a48.02 48.02 0 1 0 96.04 0 a48.02 48.02 0 1 0 -96.04 0z" stroke="#e73635"></path><path d="M1016.39 423.63a28.82 28.82 0 1 0 29.73 49.38z" fill="#d3b714"></path><path d="M58.03 229.82L88.7 229.82L88.7 260.49L58.03 260.49z" fill="#037b0b"></path><path d="M743.4 107.25L749.39 107.25L749.39 131.1L743.4 131.1z" fill="#037b0b"></path><path d="M1009.67 295.9L1019.86 295.9L1019.86 306.09L1009.67 306.09z" stroke="#d3b714"></path><path d="M868.13 393.57 a22.44 22.44 0 1 0 44.88 0 a22.44 22.44 0 1 0 -44.88 0z" fill="#d3b714"></path><path d="M403.85 185.27L435.44 185.27L435.44 232.3L403.85 232.3z" stroke="#e73635"></path><path d="M54.23 12.12L93.43 12.12L93.43 25.18L54.23 25.18z" stroke="#d3b714"></path><path d="M1186.52 145.41a23.45 23.45 0 1 0-23.79 40.42z" stroke="#e73635"></path><path d="M1233.96 265.53a8.38 8.38 0 1 0-9.21 14.01z" stroke="#037b0b"></path><path d="M964.65 258.27a15.93 15.93 0 1 0-6.02 31.29z" fill="#e73635"></path><path d="M1299.19 178.36L1351.88 178.36L1351.88 206.74L1299.19 206.74z" stroke="#d3b714"></path><path d="M99.99 42.86a22.96 22.96 0 1 0-45.91 0.95z" fill="#e73635"></path><path d="M645.48 174.47a6.22 6.22 0 1 0 3.46-11.95z" fill="#e73635"></path><path d="M1212.94 275.07L1244.89 275.07L1244.89 307.02L1212.94 307.02z" stroke="#037b0b"></path><path d="M970.31 128.19a13.98 13.98 0 1 0-20.69 18.81z" stroke="#d3b714"></path><path d="M112.19 545.9 a25.56 25.56 0 1 0 51.12 0 a25.56 25.56 0 1 0 -51.12 0z" fill="#d3b714"></path><path d="M301.62 191.3a45.68 45.68 0 1 0-83.81 36.35z" stroke="#037b0b"></path><path d="M342.05 397.23L345.34 397.23L345.34 409.26L342.05 409.26z" fill="#d3b714"></path></g><defs><mask id="SvgjsMask1123"><rect width="1440" height="560" fill="#ffffff"></rect></mask><linearGradient x1="15.28%" y1="-39.29%" x2="84.72%" y2="139.29%" gradientUnits="userSpaceOnUse" id="SvgjsLinearGradient1124"><stop stop-color="#0e2a47" offset="0"></stop><stop stop-color="rgba(23, 41, 64, 1)" offset="1"></stop></linearGradient></defs></svg>